<?xml version="1.0" standalone="no"?>
<!DOCTYPE svg PUBLIC "-//W3C//DTD SVG 20010904//EN"
 "http://www.w3.org/TR/2001/REC-SVG-20010904/DTD/svg10.dtd">
<svg version="1.0" xmlns="http://www.w3.org/2000/svg"
 width="600.000000pt" height="600.000000pt" viewBox="0 0 600.000000 600.000000"
 preserveAspectRatio="xMidYMid meet">
<metadata>
Created by potrace 1.11, written by Peter Selinger 2001-2013
</metadata>
<g transform="translate(0.000000,600.000000) scale(0.100000,-0.100000)"
fill="#000000" stroke="none">
<path d="M1335 4971 c-81 -20 -146 -72 -187 -151 -23 -44 -23 -50 -23 -335 0
-338 3 -355 88 -430 27 -25 53 -45 58 -45 5 0 9 -571 10 -1362 0 -1029 3
-1372 12 -1398 22 -64 48 -70 325 -70 277 0 303 5 327 64 13 31 15 225 15
1400 0 1345 0 1365 20 1371 10 3 40 29 65 57 72 80 77 109 73 431 l-3 272 -27
50 c-39 74 -92 118 -177 144 -38 12 -527 13 -576 2z m502 -219 c18 -12 43 -37
55 -55 22 -31 23 -40 23 -213 0 -203 -7 -229 -73 -275 -34 -23 -41 -24 -221
-24 -209 0 -225 4 -271 73 -22 34 -25 49 -28 175 -6 204 0 240 53 292 24 24
56 46 71 48 16 3 103 4 194 3 155 -1 167 -2 197 -24z"/>
<path d="M2670 4877 c-24 -8 -41 -23 -53 -47 -16 -33 -17 -135 -15 -1812 l3
-1778 28 -27 27 -28 625 -3 c383 -1 625 -6 625 -12 0 -16 62 -81 100 -104 68
-43 109 -48 396 -44 l269 3 55 30 c67 37 123 108 139 178 9 37 12 131 9 317
-4 305 -9 324 -93 398 -79 70 -104 74 -427 70 -270 -3 -285 -4 -324 -25 -39
-21 -124 -106 -124 -124 0 -5 -142 -9 -315 -9 l-315 0 0 1458 c0 981 -4 1469
-11 1495 -19 69 -31 72 -314 74 -177 2 -260 -1 -285 -10z m1926 -3081 c17 -11
41 -35 55 -55 23 -35 24 -42 24 -221 0 -177 -1 -186 -23 -217 -12 -18 -37 -43
-55 -55 -31 -22 -40 -23 -217 -23 -177 0 -186 1 -217 23 -71 51 -78 70 -81
247 -3 99 0 177 7 202 13 49 59 99 104 112 18 6 109 9 202 8 147 -2 174 -5
201 -21z"/>
</g>
</svg>
